<?xml version="1.0" encoding="UTF-8"?>
<svg version="1.1" xmlns="http://www.w3.org/2000/svg" width="48" height="48">
<path d="M0 0 C4.29 0 8.58 0 13 0 C16.3188633 3.3188633 16.38173966 3.62357595 16.3984375 8 C16.40423828 9.4540625 16.40423828 9.4540625 16.41015625 10.9375 C16.39855469 11.948125 16.38695313 12.95875 16.375 14 C16.38660156 15.010625 16.39820312 16.02125 16.41015625 17.0625 C16.40628906 18.031875 16.40242188 19.00125 16.3984375 20 C16.39336182 21.3303125 16.39336182 21.3303125 16.38818359 22.6875 C16 25 16 25 13 28 C8.71 28 4.42 28 0 28 C0 18.76 0 9.52 0 0 Z " fill="#000000" transform="translate(27,10)"/>
<path d="M0 0 C4.29 0 8.58 0 13 0 C13 9.24 13 18.48 13 28 C8.71 28 4.42 28 0 28 C-3.3188633 24.6811367 -3.38173966 24.37642405 -3.3984375 20 C-3.40230469 19.030625 -3.40617188 18.06125 -3.41015625 17.0625 C-3.39855469 16.051875 -3.38695312 15.04125 -3.375 14 C-3.38660156 12.989375 -3.39820313 11.97875 -3.41015625 10.9375 C-3.40628906 9.968125 -3.40242187 8.99875 -3.3984375 8 C-3.39505371 7.113125 -3.39166992 6.22625 -3.38818359 5.3125 C-3 3 -3 3 0 0 Z " fill="#000000" transform="translate(7,10)"/>
<path d="M0 0 C3.63 0 7.26 0 11 0 C11 0.99 11 1.98 11 3 C9.68 3 8.36 3 7 3 C7 14.22 7 25.44 7 37 C8.32 37 9.64 37 11 37 C11 37.99 11 38.98 11 40 C7.37 40 3.74 40 0 40 C0 39.01 0 38.02 0 37 C1.32 37 2.64 37 4 37 C4 25.78 4 14.56 4 3 C2.35 2.67 0.7 2.34 -1 2 C-0.67 1.34 -0.34 0.68 0 0 Z " fill="#000000" transform="translate(18,4)"/>
</svg>
