<?xml version="1.0" encoding="UTF-8"?>
<svg version="1.1" xmlns="http://www.w3.org/2000/svg" width="48" height="48">
<path d="M0 0 C4.43118719 2.13646525 7.2290203 4.37577522 9 9 C9.72425436 18.01294316 9.72425436 18.01294316 8.23828125 22.08984375 C8.12033203 23.03537109 8.12033203 23.03537109 8 24 C9.64934314 26.10542606 9.64934314 26.10542606 11.9375 28 C14.21484375 30 14.21484375 30 16 32 C16 33.32 16 34.64 16 36 C13.06186245 35.91096553 11.3898896 35.36987295 9.25 33.33984375 C8.05807544 32.04773588 6.88903532 30.73406899 5.74609375 29.3984375 C5.16988281 28.93695313 4.59367187 28.47546875 4 28 C2.05010659 28.21961249 2.05010659 28.21961249 0 29 C-5.30625711 29.48894514 -9.64209811 29.6547027 -14.5 27.3125 C-18.89443074 23.24765156 -20.18657624 20.53610427 -20.4375 14.5625 C-20.29099091 9.61448843 -19.44763149 6.72716917 -16 3 C-11.49597957 -1.09456403 -5.75025959 -0.7599462 0 0 Z M-13.0625 6.9375 C-15.66676523 11.05391923 -16.04704003 14.2539907 -15 19 C-13.0125694 22.0432531 -11.67958873 23.62073803 -8.0625 24.4375 C-4.22273235 24.67021319 -2.36288196 24.23162678 0.9375 22.125 C3.77493852 19.20157849 3.96451772 18.36073651 4.375 14.1875 C4.30791111 10.83915436 3.97938747 9.96808382 2.0625 7 C-1.50806846 4.66820019 -3.6450206 4.25422505 -7.83984375 4.52734375 C-10.27857956 4.93206316 -10.27857956 4.93206316 -13.0625 6.9375 Z " fill="#000000" transform="translate(26,6)"/>
</svg>
